<svg t="1710330593110" class="icon" viewBox="0 0 1024 1024" version="1.1" xmlns="http://www.w3.org/2000/svg" p-id="973" width="16" height="16"><path d="M767.0784 900.5056a82.2784 82.2784 0 0 0 82.2784-82.2784v-253.3376h22.016a47.36 47.36 0 0 0 33.8432-80.5376l-310.9888-317.44a79.872 79.872 0 0 0-114.4832 0.3584l-306.8928 317.44a47.36 47.36 0 0 0 34.048 80.3328h22.016v253.3376a82.2784 82.2784 0 0 0 82.2784 82.2784c10.5984-1.792 455.8848-0.1536 455.8848-0.1536z" fill="#8CECFF" p-id="974"></path><path d="M627.968 830.976a35.84 35.84 0 0 1-35.84-35.84v-193.5872a16.3328 16.3328 0 0 0-16.3328-16.3328H461.7216a16.3328 16.3328 0 0 0-16.2816 16.3328v192.8192a35.84 35.84 0 0 1-71.68 0v-192.8192a88.1152 88.1152 0 0 1 87.9616-88.0128h114.0736a88.1152 88.1152 0 0 1 88.0128 88.0128v193.5872a35.84 35.84 0 0 1-35.84 35.84z" fill="#FFDE73" p-id="975"></path><path d="M922.2656 442.9824l-337.92-344.7808a108.9536 108.9536 0 0 0-78.3872-32.9728h-0.3584a108.9536 108.9536 0 0 0-78.592 33.4848L93.7984 443.3408a74.496 74.496 0 0 0 53.504 126.3104H148.48v252.0576a112.64 112.64 0 0 0 112.64 112.384 20.48 20.48 0 0 0 2.5088 0c18.5344-1.1776 304.2304-0.5632 492.544 0a112.64 112.64 0 0 0 112.384-112.384v-252.0576h0.8704a74.5472 74.5472 0 0 0 53.248-126.6688z m-27.0336 63.1808a27.9552 27.9552 0 0 1-26.2144 17.408h-23.9104a22.9888 22.9888 0 0 0-23.04 23.04v275.0976a66.56 66.56 0 0 1-66.304 66.304c-172.8-0.6144-458.8032-1.4336-495.1552 0A66.56 66.56 0 0 1 194.56 821.7088v-275.0976a23.04 23.04 0 0 0-23.04-23.04h-24.2176a28.4672 28.4672 0 0 1-20.48-48.2304l333.3632-344.576a63.0784 63.0784 0 0 1 45.568-19.456 63.3344 63.3344 0 0 1 45.5168 19.1488l337.92 344.7808a27.904 27.904 0 0 1 6.0416 30.9248z" fill="#474747" p-id="976"></path><path d="M565.1968 515.7376H451.1232a75.3152 75.3152 0 0 0-75.2128 75.264v192.768a23.04 23.04 0 0 0 46.08 0v-192.768a29.184 29.184 0 0 1 29.1328-29.184h114.0736a29.2352 29.2352 0 0 1 29.184 29.184v193.536a23.04 23.04 0 0 0 46.08 0v-193.536a75.3664 75.3664 0 0 0-75.264-75.264z"  p-id="977"></path></svg>