<svg t="1710302030747" class="icon" viewBox="0 0 1024 1024" version="1.1" xmlns="http://www.w3.org/2000/svg" p-id="897" width="16" height="16"><path d="M510.176 203.616a32 32 0 0 1 14.528 14.528l79.456 160.992 177.664 25.824a32 32 0 0 1 17.728 54.592l-128.544 125.312 30.336 176.96a32 32 0 0 1-46.4 33.728L496 712l-158.912 83.52a32 32 0 0 1-46.432-33.696l30.336-176.96-128.544-125.312a32 32 0 0 1 17.728-54.592l177.664-25.824 79.456-160.992a32 32 0 0 1 42.88-14.528z m51.488 234.016L496 304.576l-65.664 133.056-146.816 21.344 106.24 103.552-25.088 146.176L496 639.68l131.296 69.024-25.056-146.176 106.208-103.552-146.784-21.344z"  p-id="898"></path></svg>